<svg width="512" height="512" xmlns="http://www.w3.org/2000/svg">
 <!--! Font Awesome Pro 6.4.2 by @fontawesome - https://fontawesome.com License - https://fontawesome.com/license (Commercial License) Copyright 2023 Fonticons, Inc. -->

 <g>
  <title>Layer 1</title>
  <g id="svg_4">
   <path fill="#6415ff" id="svg_1" d="m256,1.39999c4.6,0 9.2,1 13.4,2.9l188.3,79.9c22,9.3 38.4,31 38.3,57.2c-0.5,99.2 -41.3,280.7 -213.6,363.2c-16.7,8 -36.1,8 -52.8,0c-172.3,-82.5 -213.1,-264 -213.6,-363.2c-0.1,-26.2 16.3,-47.9 38.3,-57.2l188.4,-79.9c4.1,-1.9 8.7,-2.9 13.3,-2.9z"/>
   <path stroke="null" fill="white" id="svg_2" d="m320.67249,146.97477c3.0428,-7.0655 0.77359,-15.31717 -5.46673,-19.85559s-14.74987,-4.12584 -20.57761,0.92831l-132.02677,115.52343c-5.1573,4.53842 -7.01392,11.81021 -4.58999,18.20525s8.61268,10.72718 15.47189,10.72718l57.50385,0l-39.65961,92.52189c-3.0428,7.0655 -0.77359,15.31717 5.46673,19.85559s14.74987,4.12584 20.57761,-0.92831l132.02677,-115.52343c5.1573,-4.53842 7.01392,-11.81021 4.58999,-18.20525s-8.56111,-10.6756 -15.47189,-10.6756l-57.50385,0l39.65961,-92.57346z"/>
  </g>
 </g>
</svg>