<svg width="640" height="512" xmlns="http://www.w3.org/2000/svg">
 <!--! Font Awesome Pro 6.4.2 by @fontawesome - https://fontawesome.com License - https://fontawesome.com/license (Commercial License) Copyright 2023 Fonticons, Inc. -->

 <g>
  <title>Layer 1</title>
  <g id="svg_3">
   <path fill="#6415ff" id="svg_2" d="m392.6743,418.79148l95.79552,89.43389c3.97602,3.71095 9.22436,5.77848 14.68476,5.77848s10.70874,-2.06753 14.68476,-5.77848l95.79552,-89.43389c16.11612,-15.00284 25.23446,-36.04923 25.23446,-58.04986l0,-3.07479c0,-37.05648 -26.77185,-68.65257 -63.2982,-74.74913c-24.17419,-4.02903 -48.77248,3.86999 -66.05491,21.15241l-6.36163,6.36163l-6.36163,-6.36163c-17.28242,-17.28242 -41.88072,-25.18144 -66.05491,-21.15241c-36.52635,6.09656 -63.2982,37.69265 -63.2982,74.74913l0,3.07479c0,22.00063 9.11833,43.04702 25.23446,58.04986z"/>
   <path fill="#6415ff" id="svg_1" d="m224,256a128,128 0 1 0 0,-256a128,128 0 1 0 0,256zm-45.7,48c-98.5,0 -178.3,79.8 -178.3,178.3c0,16.4 13.3,29.7 29.7,29.7l388.6,0c1.8,0 27.69408,-1.81294 5.3,-0.5c-125.49462,-117.19813 -99.8,-141 -103.1,-200.2c-16.1,-4.8 -33.1,-7.3 -50.7,-7.3l-91.5,0z"/>
  </g>
 </g>
</svg>